# xmcd
#
# Track frame offsets: 
#        150
#        17020
#        30257
#        39812
#        53522
#        72127
#        85557
#        112837
#        130187
#        150780
#
# Disc length: 2191 seconds
#
# Revision: 2
# Processed by: cddbd v1.4PL0 Copyright (c) Steve Scherf et al.
# Submitted via: ExactAudioCopy v0.90b3
#
DISCID=59088d0a
DTITLE=George Jones - First Time Live
DYEAR=1900
DGENRE=Country
TTITLE0=No Show Jones
TTITLE1=The Race Is On
TTITLE2=Fox On The Run
TTITLE3=Tennessee Whiskey
TTITLE4=I'm Not Ready Yet
TTITLE5=Who's Gonna Chop My Baby's Kindlin'
TTITLE6=Three Song Medley
TTITLE7=You Better Treat Your Man Right
TTITLE8=He Stopped Loving Her Today
TTITLE9=She's My Rock
EXTD=
EXTT0=
EXTT1=
EXTT2=
EXTT3=
EXTT4=
EXTT5=
EXTT6=
EXTT7=
EXTT8=
EXTT9=
PLAYORDER=
